<mxfile host="app.diagrams.net" modified="2024-05-28T14:18:58.555Z" agent="Mozilla/5.0 (Windows NT 10.0; Win64; x64) AppleWebKit/537.36 (KHTML, like Gecko) Chrome/125.0.0.0 Safari/537.36" etag="iEYhaTY2ouqPVx5UV61K" version="24.4.9" type="github">
  <diagram name="PÃ¡gina-1" id="SPkH_x2dKIdtqHAaEM73">
    <mxGraphModel dx="1434" dy="772" grid="1" gridSize="10" guides="1" tooltips="1" connect="1" arrows="1" fold="1" page="1" pageScale="1" pageWidth="827" pageHeight="1169" math="0" shadow="0">
      <root>
        <mxCell id="0" />
        <mxCell id="1" parent="0" />
        <mxCell id="aosbVBGn0myzjfeMoIGL-1" value="Biblioteca" style="swimlane;fontStyle=1;align=center;verticalAlign=top;childLayout=stackLayout;horizontal=1;startSize=26;horizontalStack=0;resizeParent=1;resizeParentMax=0;resizeLast=0;collapsible=1;marginBottom=0;whiteSpace=wrap;html=1;" vertex="1" parent="1">
          <mxGeometry x="250" y="350" width="340" height="200" as="geometry" />
        </mxCell>
        <mxCell id="aosbVBGn0myzjfeMoIGL-2" value="# usuario: vector&amp;lt;Usuario&lt;span style=&quot;font-size: 10px;&quot;&gt;&amp;gt;&lt;/span&gt;&lt;div&gt;# livro: vector&amp;lt;Livro&amp;gt;&lt;/div&gt;" style="text;strokeColor=none;fillColor=none;align=left;verticalAlign=top;spacingLeft=4;spacingRight=4;overflow=hidden;rotatable=0;points=[[0,0.5],[1,0.5]];portConstraint=eastwest;whiteSpace=wrap;html=1;" vertex="1" parent="aosbVBGn0myzjfeMoIGL-1">
          <mxGeometry y="26" width="340" height="34" as="geometry" />
        </mxCell>
        <mxCell id="aosbVBGn0myzjfeMoIGL-3" value="" style="line;strokeWidth=1;fillColor=none;align=left;verticalAlign=middle;spacingTop=-1;spacingLeft=3;spacingRight=3;rotatable=0;labelPosition=right;points=[];portConstraint=eastwest;strokeColor=inherit;" vertex="1" parent="aosbVBGn0myzjfeMoIGL-1">
          <mxGeometry y="60" width="340" height="8" as="geometry" />
        </mxCell>
        <mxCell id="aosbVBGn0myzjfeMoIGL-4" value="+ cadastroUsuario(usuario: Usuario): string&lt;div&gt;+ apagarUsuario(usuario: Usuario): void&lt;/div&gt;&lt;div&gt;+ modificarUsuario(usuario: Usuario, multa: int): string&lt;/div&gt;&lt;div&gt;+ cadastroLivro(livro: Livro): string&lt;/div&gt;&lt;div&gt;+ emprestimoLivro(livro: Livro): string&lt;/div&gt;&lt;div&gt;+ devolucaoLivro(livro:Livro): string&lt;/div&gt;&lt;div&gt;+ aplicarMulta(usuario: Usuario): int&lt;/div&gt;&lt;div&gt;+ checarLivro(livro:Livro): void&lt;/div&gt;" style="text;strokeColor=none;fillColor=none;align=left;verticalAlign=top;spacingLeft=4;spacingRight=4;overflow=hidden;rotatable=0;points=[[0,0.5],[1,0.5]];portConstraint=eastwest;whiteSpace=wrap;html=1;" vertex="1" parent="aosbVBGn0myzjfeMoIGL-1">
          <mxGeometry y="68" width="340" height="132" as="geometry" />
        </mxCell>
        <mxCell id="aosbVBGn0myzjfeMoIGL-9" value="Usuario" style="swimlane;fontStyle=1;align=center;verticalAlign=top;childLayout=stackLayout;horizontal=1;startSize=26;horizontalStack=0;resizeParent=1;resizeParentMax=0;resizeLast=0;collapsible=1;marginBottom=0;whiteSpace=wrap;html=1;" vertex="1" parent="1">
          <mxGeometry x="30" y="692" width="220" height="124" as="geometry" />
        </mxCell>
        <mxCell id="aosbVBGn0myzjfeMoIGL-10" value="+&amp;nbsp;nome: string&lt;div&gt;- senha: string&lt;/div&gt;&lt;div&gt;- multas: int&lt;/div&gt;&lt;div&gt;- livrosEmp: vector&amp;lt;Livro&amp;gt;&lt;/div&gt;" style="text;strokeColor=none;fillColor=none;align=left;verticalAlign=top;spacingLeft=4;spacingRight=4;overflow=hidden;rotatable=0;points=[[0,0.5],[1,0.5]];portConstraint=eastwest;whiteSpace=wrap;html=1;" vertex="1" parent="aosbVBGn0myzjfeMoIGL-9">
          <mxGeometry y="26" width="220" height="64" as="geometry" />
        </mxCell>
        <mxCell id="aosbVBGn0myzjfeMoIGL-11" value="" style="line;strokeWidth=1;fillColor=none;align=left;verticalAlign=middle;spacingTop=-1;spacingLeft=3;spacingRight=3;rotatable=0;labelPosition=right;points=[];portConstraint=eastwest;strokeColor=inherit;" vertex="1" parent="aosbVBGn0myzjfeMoIGL-9">
          <mxGeometry y="90" width="220" height="8" as="geometry" />
        </mxCell>
        <mxCell id="aosbVBGn0myzjfeMoIGL-12" value="# exibirDados(usuario: Usuario): void&amp;nbsp;" style="text;strokeColor=none;fillColor=none;align=left;verticalAlign=top;spacingLeft=4;spacingRight=4;overflow=hidden;rotatable=0;points=[[0,0.5],[1,0.5]];portConstraint=eastwest;whiteSpace=wrap;html=1;" vertex="1" parent="aosbVBGn0myzjfeMoIGL-9">
          <mxGeometry y="98" width="220" height="26" as="geometry" />
        </mxCell>
        <mxCell id="aosbVBGn0myzjfeMoIGL-18" value="Livro" style="swimlane;fontStyle=1;align=center;verticalAlign=top;childLayout=stackLayout;horizontal=1;startSize=26;horizontalStack=0;resizeParent=1;resizeParentMax=0;resizeLast=0;collapsible=1;marginBottom=0;whiteSpace=wrap;html=1;" vertex="1" parent="1">
          <mxGeometry x="590" y="700" width="160" height="88" as="geometry" />
        </mxCell>
        <mxCell id="aosbVBGn0myzjfeMoIGL-19" value="+ nome: string&lt;div&gt;+ nmr: int&lt;/div&gt;&lt;div&gt;+ autor: string&lt;/div&gt;&lt;div&gt;&lt;br&gt;&lt;/div&gt;" style="text;strokeColor=none;fillColor=none;align=left;verticalAlign=top;spacingLeft=4;spacingRight=4;overflow=hidden;rotatable=0;points=[[0,0.5],[1,0.5]];portConstraint=eastwest;whiteSpace=wrap;html=1;" vertex="1" parent="aosbVBGn0myzjfeMoIGL-18">
          <mxGeometry y="26" width="160" height="54" as="geometry" />
        </mxCell>
        <mxCell id="aosbVBGn0myzjfeMoIGL-20" value="" style="line;strokeWidth=1;fillColor=none;align=left;verticalAlign=middle;spacingTop=-1;spacingLeft=3;spacingRight=3;rotatable=0;labelPosition=right;points=[];portConstraint=eastwest;strokeColor=inherit;" vertex="1" parent="aosbVBGn0myzjfeMoIGL-18">
          <mxGeometry y="80" width="160" height="8" as="geometry" />
        </mxCell>
      </root>
    </mxGraphModel>
  </diagram>
</mxfile>
